<svg aria-hidden="true" style="position: absolute; width: 0; height: 0; overflow: hidden;" version="1.1" xmlns="http://www.w3.org/2000/svg" xmlns:xlink="http://www.w3.org/1999/xlink">
<defs>

<symbol id="icon-heart" viewBox="0 0 34 32">
<path fill="#ff6b08" style="fill: var(--color1, #ff6b08)" d="M17.231 31.705l-2.412-2.412c-8.96-7.926-14.818-13.268-14.818-19.815 0-5.342 4.135-9.477 9.477-9.477 2.929 0 5.858 1.378 7.754 3.618 1.895-2.24 4.825-3.618 7.754-3.618 5.342 0 9.477 4.135 9.477 9.477 0 6.548-5.858 11.889-14.818 19.815l-2.412 2.412z"></path>
</symbol>

<symbol id="moon" viewBox="0 0 32 32"><path fill="#f1c40f" d="M17.701 32a15.97 15.97 0 0012.429-5.925c.442-.544-.04-1.339-.723-1.209-7.763 1.478-14.891-4.474-14.891-12.31 0-4.514 2.416-8.665 6.344-10.9.605-.345.453-1.262-.235-1.389-.879-.17-1.89-.267-2.923-.268-8.832 0-16 7.157-16 16 0 8.832 7.157 16 16 16z"/></symbol>

<symbol id="sun" viewBox="0 0 32 32"><path fill="#f39c12" d="M16 10c-3.306 0-6 2.694-6 6s2.694 6 6 6 6-2.694 6-6-2.694-6-6-6zm15.4 5.031l-5.919-2.956L27.575 5.8c.281-.85-.525-1.656-1.369-1.369l-6.275 2.094L16.969.6c-.4-.8-1.537-.8-1.938 0l-2.956 5.919-6.281-2.094c-.85-.281-1.656.525-1.369 1.369l2.094 6.275L.6 15.032c-.8.4-.8 1.538 0 1.938l5.919 2.956-2.094 6.281c-.281.85.525 1.656 1.369 1.369l6.275-2.094 2.956 5.919c.4.8 1.538.8 1.938 0l2.956-5.919 6.275 2.094c.85.281 1.656-.525 1.369-1.369l-2.094-6.275 5.919-2.956c.813-.406.813-1.544.012-1.944zm-9.744 6.625c-3.119 3.119-8.194 3.119-11.313 0s-3.119-8.194 0-11.313c3.119-3.119 8.194-3.119 11.313 0s3.119 8.194 0 11.313z"/></symbol>


<symbol id="icon-close" viewBox="0 0 32 32">
<path stroke-linejoin="miter" stroke-linecap="butt" stroke-miterlimit="4" stroke-width="2.1333" d="M8.533 8.533l14.933 14.933"></path>
<path stroke-linejoin="miter" stroke-linecap="butt" stroke-miterlimit="4" stroke-width="2.1333" d="M8.533 23.467l14.933-14.933"></path>
</symbol>

<symbol id="icon-top-arrow" viewBox="0 0 32 32">
<path stroke-width="2.6667" stroke-miterlimit="4" stroke-linecap="round" stroke-linejoin="round" d="M6.667 16h18.667"></path>
<path stroke-width="2.6667" stroke-miterlimit="4" stroke-linecap="round" stroke-linejoin="round" d="M16 25.333l9.333-9.333-9.333-9.333"></path>
</symbol>



</defs>
</svg>
